
<svg width="16" height="16" viewBox="0 0 24 24" fill="none" xmlns="http://www.w3.org/2000/svg">
<path d="M3.42857 0C3.18857 0 2.98286 0.0299835 2.77714 0.0899506C1.44 0.329819 0.377143 1.25931 0.102857 2.42867C0 2.60857 0 2.78847 0 2.99835V19.4893C0 21.9779 2.29714 23.9868 5.14286 23.9868H24V20.9885H5.14286C4.18286 20.9885 3.42857 20.3288 3.42857 19.4893C3.42857 18.6497 4.18286 17.9901 5.14286 17.9901H24V1.49918C24 0.659637 23.2457 0 22.2857 0H20.5714V8.99506L17.1429 5.9967L13.7143 8.99506V0H3.42857Z" fill="#8A92A6"/>
</svg>


